# xmcd
#
# Track frame offsets:
#	150
#	4802
#	19425
#	31122
#	40008
#	53957
#	64457
#	79872
#	92701
#	106169
#	114604
#	125113
#	135390
#	145217
#	159918
#	177167
#	190610
#	208233
#	219109
#	231633
#	240033
#
# Disc length: 3340 seconds
#
# Revision: 2
# Processed by: cddbd v1.4PL0 Copyright (c) Steve Scherf et al.
# Submitted via: audiograbber 1.80
#
DISCID=1d0d0a15
DTITLE=Sängerrunde Irschen - Du schönes Land
DYEAR=1900
DGENRE=
TTITLE0=Du schönes Land
TTITLE1=Alpenruß
TTITLE2=A Bam is ka Grasle
TTITLE3=Von Rupertiberg in die Turia
TTITLE4=La Morettina
TTITLE5=I'm Troubled
TTITLE6=Weinland
TTITLE7=Mein Kärntnerland
TTITLE8=Schau i vom Berglan
TTITLE9=Ja ins Liesertal eine
TTITLE10=An Bock hob i g'schosn
TTITLE11=Ban Sea
TTITLE12='s war immer so
TTITLE13=Jugendzeit
TTITLE14=Heimat
TTITLE15=La mula de Parenzo
TTITLE16=Lied der Berghirten
TTITLE17=Da drobn am Berg
TTITLE18=Junga Tag
TTITLE19=A Göschle muaßt habn
TTITLE20=Das Streichelkatzle
EXTD=
EXTT0=
EXTT1=
EXTT2=
EXTT3=
EXTT4=
EXTT5=
EXTT6=
EXTT7=
EXTT8=
EXTT9=
EXTT10=
EXTT11=
EXTT12=
EXTT13=
EXTT14=
EXTT15=
EXTT16=
EXTT17=
EXTT18=
EXTT19=
EXTT20=
PLAYORDER=
